<svg id="svg" xmlns="http://www.w3.org/2000/svg" xmlns:xlink="http://www.w3.org/1999/xlink" width="400" height="400" viewBox="0, 0, 400,400"><g id="svgg"><path id="path0" d="M195.800 106.865 C 186.676 108.660,179.278 113.239,174.749 119.894 C 174.036 120.942,173.349 121.890,173.223 122.000 C 171.929 123.125,141.387 182.879,136.115 194.600 C 135.422 196.140,133.569 200.100,131.997 203.400 C 130.425 206.700,128.501 210.750,127.721 212.400 C 126.942 214.050,125.538 217.020,124.601 219.000 C 119.339 230.123,116.064 237.752,114.844 241.731 C 108.580 262.163,118.393 282.439,138.600 290.815 C 143.701 292.930,151.917 294.010,156.633 293.187 C 172.468 290.421,181.151 285.507,196.070 270.872 L 199.940 267.075 204.083 271.238 C 213.205 280.401,222.382 286.889,230.700 290.057 C 231.195 290.246,232.005 290.559,232.500 290.754 C 239.118 293.360,251.236 294.191,255.919 292.359 C 256.424 292.162,257.269 292.000,257.795 292.000 C 258.322 292.000,258.864 291.820,259.000 291.600 C 259.136 291.380,259.510 291.200,259.832 291.200 C 263.417 291.200,274.293 283.547,278.213 278.267 C 279.221 276.910,280.264 275.530,280.532 275.200 C 287.320 266.844,288.938 248.527,283.863 237.488 C 283.278 236.217,282.800 235.090,282.800 234.984 C 282.800 234.666,279.939 228.332,277.386 223.000 C 273.930 215.780,270.800 209.122,270.800 208.989 C 270.800 208.843,266.872 200.601,262.326 191.205 C 258.181 182.639,242.767 151.778,239.748 146.000 C 238.311 143.250,235.525 137.850,233.557 134.000 C 228.410 123.935,226.802 121.281,224.017 118.265 C 223.238 117.421,222.470 116.500,222.310 116.219 C 221.336 114.501,214.778 110.100,210.800 108.495 C 206.771 106.869,199.692 106.100,195.800 106.865 M207.493 119.673 C 213.131 121.772,217.061 125.927,221.611 134.600 C 234.333 158.851,257.711 206.322,267.805 228.400 C 268.961 230.930,270.558 234.396,271.354 236.102 C 272.149 237.808,272.800 239.355,272.800 239.540 C 272.800 239.726,273.094 240.466,273.453 241.185 C 275.306 244.901,276.357 252.891,275.604 257.535 C 273.251 272.023,262.869 281.539,248.600 282.286 C 237.048 282.890,226.513 277.593,213.100 264.438 C 207.025 258.480,207.230 259.383,210.917 254.799 C 217.432 246.699,228.000 228.529,228.000 225.428 C 228.000 225.109,228.159 224.749,228.352 224.630 C 228.546 224.510,228.824 223.914,228.970 223.306 C 229.415 221.454,229.924 219.482,230.391 217.800 C 231.387 214.216,231.993 206.337,231.544 202.800 C 230.973 198.297,228.624 191.366,227.500 190.867 C 227.335 190.793,227.200 190.523,227.200 190.267 C 227.199 190.010,226.794 189.312,226.300 188.715 C 225.805 188.119,224.811 186.911,224.092 186.032 C 221.354 182.688,215.110 178.734,210.468 177.405 C 209.220 177.048,207.647 176.586,206.972 176.378 C 205.420 175.900,194.909 175.881,193.360 176.353 C 192.722 176.548,191.390 176.930,190.400 177.203 C 180.139 180.033,172.599 187.836,169.147 199.200 C 167.424 204.872,169.050 218.389,172.395 226.200 C 172.584 226.640,173.067 227.799,173.469 228.776 C 176.662 236.531,182.641 246.293,190.372 256.372 C 192.653 259.346,192.756 258.924,188.714 263.115 C 184.531 267.451,176.585 274.400,175.809 274.400 C 175.670 274.400,174.462 275.143,173.126 276.051 C 157.927 286.371,137.956 283.700,129.381 270.200 C 128.961 269.540,128.522 268.910,128.404 268.800 C 125.648 266.232,123.457 252.282,125.091 247.711 C 125.310 247.100,125.705 245.880,125.971 245.000 C 126.236 244.120,126.645 242.950,126.880 242.400 C 127.115 241.850,127.445 241.040,127.613 240.600 C 128.117 239.281,129.225 236.746,130.412 234.200 C 131.027 232.880,132.697 229.280,134.124 226.200 C 137.157 219.650,140.023 213.619,144.579 204.200 C 146.387 200.460,149.292 194.438,151.034 190.819 C 155.906 180.692,174.764 143.230,175.206 142.800 C 175.319 142.690,176.138 141.160,177.027 139.400 C 186.422 120.790,195.209 115.100,207.493 119.673 M205.298 187.174 C 217.156 190.207,223.023 201.970,219.177 215.000 C 217.564 220.462,216.776 222.498,214.375 227.400 C 211.444 233.385,210.379 235.320,209.900 235.533 C 209.735 235.607,209.600 235.922,209.600 236.233 C 209.600 236.545,209.420 236.800,209.200 236.800 C 208.980 236.800,208.800 236.993,208.800 237.228 C 208.800 237.627,206.758 240.811,205.819 241.875 C 205.589 242.136,204.320 243.888,203.000 245.768 C 201.680 247.648,200.330 249.182,200.000 249.176 C 199.499 249.167,196.012 244.836,194.600 242.470 C 194.380 242.102,194.096 241.710,193.970 241.600 C 189.504 237.717,181.314 219.285,179.989 210.133 C 177.811 195.096,190.668 183.432,205.298 187.174 " stroke="none" fill="#fcf9fa" fill-rule="evenodd"></path><path id="path1" d="M179.003 0.275 C 177.025 0.362,175.234 0.606,175.023 0.817 C 174.812 1.028,173.427 1.200,171.944 1.200 C 170.461 1.200,169.136 1.380,169.000 1.600 C 168.864 1.820,167.874 2.000,166.800 2.000 C 165.726 2.000,164.736 2.180,164.600 2.400 C 164.464 2.620,163.474 2.800,162.400 2.800 C 161.326 2.800,160.336 2.980,160.200 3.200 C 160.064 3.420,159.243 3.600,158.376 3.600 C 157.509 3.600,156.800 3.780,156.800 4.000 C 156.800 4.220,156.001 4.400,155.024 4.400 C 154.047 4.400,153.136 4.580,153.000 4.800 C 152.864 5.020,152.043 5.200,151.176 5.200 C 150.309 5.200,149.600 5.380,149.600 5.600 C 149.600 5.820,149.071 6.000,148.424 6.000 C 147.777 6.000,147.136 6.180,147.000 6.400 C 146.864 6.620,146.234 6.800,145.600 6.800 C 144.966 6.800,144.336 6.980,144.200 7.200 C 144.064 7.420,143.434 7.600,142.800 7.600 C 142.166 7.600,141.536 7.780,141.400 8.000 C 141.264 8.220,140.623 8.400,139.976 8.400 C 139.329 8.400,138.800 8.580,138.800 8.800 C 138.800 9.020,138.260 9.200,137.600 9.200 C 136.940 9.200,136.400 9.356,136.400 9.546 C 136.400 9.736,135.594 10.002,134.609 10.137 C 133.624 10.272,132.499 10.552,132.109 10.760 C 130.874 11.418,125.021 13.604,124.500 13.602 C 124.225 13.601,124.000 13.747,124.000 13.928 C 124.000 14.108,123.100 14.500,122.000 14.800 C 120.900 15.100,120.000 15.492,120.000 15.672 C 120.000 15.853,119.640 16.000,119.200 16.000 C 118.760 16.000,118.400 16.180,118.400 16.400 C 118.400 16.620,118.040 16.800,117.600 16.800 C 117.160 16.800,116.800 16.980,116.800 17.200 C 116.800 17.420,116.528 17.600,116.195 17.600 C 115.862 17.600,115.277 17.768,114.895 17.974 C 114.513 18.179,113.615 18.583,112.900 18.871 C 112.185 19.160,111.600 19.531,111.600 19.698 C 111.600 19.864,111.240 20.000,110.800 20.000 C 110.360 20.000,110.000 20.180,110.000 20.400 C 110.000 20.620,109.640 20.800,109.200 20.800 C 108.760 20.800,108.400 20.980,108.400 21.200 C 108.400 21.420,108.055 21.600,107.633 21.600 C 107.212 21.600,106.807 21.735,106.733 21.900 C 106.660 22.065,105.745 22.633,104.700 23.163 C 103.655 23.692,102.800 24.277,102.800 24.463 C 102.800 24.648,102.440 24.800,102.000 24.800 C 101.560 24.800,101.200 24.980,101.200 25.200 C 101.200 25.420,100.840 25.600,100.400 25.600 C 99.960 25.600,99.600 25.780,99.600 26.000 C 99.600 26.220,99.330 26.400,99.000 26.400 C 98.670 26.400,98.400 26.560,98.400 26.757 C 98.400 26.953,97.932 27.231,97.360 27.374 C 96.487 27.593,94.324 28.874,93.600 29.601 C 93.490 29.711,92.905 30.056,92.300 30.368 C 91.695 30.680,91.200 31.085,91.200 31.268 C 91.200 31.450,90.880 31.600,90.488 31.600 C 90.097 31.600,89.517 31.960,89.200 32.400 C 88.883 32.840,88.343 33.200,88.000 33.200 C 87.657 33.200,87.117 33.560,86.800 34.000 C 86.483 34.440,86.038 34.800,85.812 34.801 C 85.585 34.801,84.770 35.341,84.000 36.000 C 83.230 36.659,82.415 37.199,82.188 37.199 C 81.962 37.200,81.517 37.560,81.200 38.000 C 80.883 38.440,80.428 38.800,80.190 38.800 C 79.951 38.800,79.046 39.434,78.178 40.208 C 77.310 40.983,76.109 42.056,75.509 42.593 C 74.909 43.130,73.903 43.836,73.273 44.162 C 72.643 44.488,71.231 45.620,70.136 46.677 C 69.041 47.735,67.527 49.043,66.772 49.584 C 66.017 50.125,64.230 51.793,62.800 53.291 C 60.199 56.016,58.934 57.286,52.590 63.544 C 50.726 65.384,49.200 67.032,49.200 67.208 C 49.200 67.384,48.193 68.576,46.962 69.857 C 45.731 71.138,44.464 72.689,44.147 73.302 C 43.830 73.916,43.130 74.909,42.593 75.509 C 42.056 76.109,40.983 77.310,40.208 78.178 C 39.434 79.046,38.800 79.951,38.800 80.190 C 38.800 80.428,38.440 80.883,38.000 81.200 C 37.560 81.517,37.200 81.962,37.199 82.188 C 37.199 82.415,36.659 83.230,36.000 84.000 C 35.341 84.770,34.801 85.585,34.801 85.812 C 34.800 86.038,34.440 86.483,34.000 86.800 C 33.560 87.117,33.200 87.657,33.200 88.000 C 33.200 88.343,32.840 88.883,32.400 89.200 C 31.960 89.517,31.600 90.097,31.600 90.488 C 31.600 90.880,31.450 91.200,31.268 91.200 C 31.085 91.200,30.680 91.695,30.368 92.300 C 30.056 92.905,29.711 93.490,29.601 93.600 C 28.874 94.324,27.593 96.487,27.374 97.360 C 27.231 97.932,26.953 98.400,26.757 98.400 C 26.560 98.400,26.400 98.670,26.400 99.000 C 26.400 99.330,26.220 99.600,26.000 99.600 C 25.780 99.600,25.600 99.960,25.600 100.400 C 25.600 100.840,25.420 101.200,25.200 101.200 C 24.980 101.200,24.800 101.560,24.800 102.000 C 24.800 102.440,24.648 102.800,24.463 102.800 C 24.277 102.800,23.692 103.655,23.163 104.700 C 22.633 105.745,22.065 106.660,21.900 106.733 C 21.735 106.807,21.600 107.212,21.600 107.633 C 21.600 108.055,21.420 108.400,21.200 108.400 C 20.980 108.400,20.800 108.760,20.800 109.200 C 20.800 109.640,20.620 110.000,20.400 110.000 C 20.180 110.000,20.000 110.360,20.000 110.800 C 20.000 111.240,19.864 111.600,19.698 111.600 C 19.531 111.600,19.160 112.185,18.871 112.900 C 18.583 113.615,18.179 114.513,17.974 114.895 C 17.768 115.277,17.600 115.862,17.600 116.195 C 17.600 116.528,17.420 116.800,17.200 116.800 C 16.980 116.800,16.800 117.160,16.800 117.600 C 16.800 118.040,16.620 118.400,16.400 118.400 C 16.180 118.400,16.000 118.760,16.000 119.200 C 16.000 119.640,15.853 120.000,15.672 120.000 C 15.492 120.000,15.100 120.900,14.800 122.000 C 14.500 123.100,14.108 124.000,13.928 124.000 C 13.747 124.000,13.601 124.225,13.602 124.500 C 13.604 125.021,11.418 130.874,10.760 132.109 C 10.552 132.499,10.272 133.624,10.137 134.609 C 10.002 135.594,9.736 136.400,9.546 136.400 C 9.356 136.400,9.200 136.940,9.200 137.600 C 9.200 138.260,9.020 138.800,8.800 138.800 C 8.580 138.800,8.400 139.329,8.400 139.976 C 8.400 140.623,8.220 141.264,8.000 141.400 C 7.780 141.536,7.600 142.166,7.600 142.800 C 7.600 143.434,7.420 144.064,7.200 144.200 C 6.980 144.336,6.800 144.966,6.800 145.600 C 6.800 146.234,6.620 146.864,6.400 147.000 C 6.180 147.136,6.000 147.777,6.000 148.424 C 6.000 149.071,5.820 149.600,5.600 149.600 C 5.380 149.600,5.200 150.309,5.200 151.176 C 5.200 152.043,5.020 152.864,4.800 153.000 C 4.580 153.136,4.400 154.047,4.400 155.024 C 4.400 156.001,4.220 156.800,4.000 156.800 C 3.780 156.800,3.600 157.509,3.600 158.376 C 3.600 159.243,3.420 160.064,3.200 160.200 C 2.980 160.336,2.800 161.326,2.800 162.400 C 2.800 163.474,2.620 164.464,2.400 164.600 C 2.180 164.736,2.000 165.726,2.000 166.800 C 2.000 167.874,1.820 168.864,1.600 169.000 C 1.380 169.136,1.200 170.461,1.200 171.944 C 1.200 173.567,1.001 174.839,0.700 175.140 C -0.029 175.869,-0.029 224.131,0.700 224.860 C 1.001 225.161,1.200 226.433,1.200 228.056 C 1.200 229.539,1.380 230.864,1.600 231.000 C 1.820 231.136,2.000 232.227,2.000 233.424 C 2.000 234.621,2.180 235.600,2.400 235.600 C 2.620 235.600,2.800 236.489,2.800 237.576 C 2.800 238.663,2.980 239.664,3.200 239.800 C 3.420 239.936,3.600 240.757,3.600 241.624 C 3.600 242.491,3.780 243.200,4.000 243.200 C 4.220 243.200,4.400 243.999,4.400 244.976 C 4.400 245.953,4.580 246.864,4.800 247.000 C 5.020 247.136,5.200 247.957,5.200 248.824 C 5.200 249.691,5.380 250.400,5.600 250.400 C 5.820 250.400,6.000 250.929,6.000 251.576 C 6.000 252.223,6.180 252.864,6.400 253.000 C 6.620 253.136,6.800 253.867,6.800 254.624 C 6.800 255.381,6.980 256.000,7.200 256.000 C 7.420 256.000,7.600 256.529,7.600 257.176 C 7.600 257.823,7.780 258.464,8.000 258.600 C 8.220 258.736,8.400 259.377,8.400 260.024 C 8.400 260.671,8.580 261.200,8.800 261.200 C 9.020 261.200,9.200 261.740,9.200 262.400 C 9.200 263.060,9.356 263.600,9.546 263.600 C 9.736 263.600,9.997 264.365,10.125 265.300 C 10.355 266.973,12.044 271.730,13.247 274.095 C 13.441 274.477,13.600 275.062,13.600 275.395 C 13.600 275.728,13.780 276.000,14.000 276.000 C 14.220 276.000,14.400 276.439,14.400 276.976 C 14.400 277.513,14.580 278.064,14.800 278.200 C 15.020 278.336,15.200 278.797,15.200 279.224 C 15.200 279.651,15.380 280.000,15.600 280.000 C 15.820 280.000,16.000 280.360,16.000 280.800 C 16.000 281.240,16.180 281.600,16.400 281.600 C 16.620 281.600,16.800 281.960,16.800 282.400 C 16.800 282.840,16.980 283.200,17.200 283.200 C 17.420 283.200,17.600 283.472,17.600 283.805 C 17.600 284.138,17.760 284.723,17.956 285.105 C 18.152 285.487,18.737 286.700,19.256 287.800 C 19.775 288.900,20.335 289.860,20.500 289.933 C 20.665 290.007,20.800 290.412,20.800 290.833 C 20.800 291.255,20.980 291.600,21.200 291.600 C 21.420 291.600,21.600 291.945,21.600 292.367 C 21.600 292.788,21.735 293.193,21.900 293.267 C 22.065 293.340,22.633 294.255,23.163 295.300 C 23.692 296.345,24.277 297.200,24.463 297.200 C 24.648 297.200,24.800 297.560,24.800 298.000 C 24.800 298.440,24.980 298.800,25.200 298.800 C 25.420 298.800,25.600 299.160,25.600 299.600 C 25.600 300.040,25.780 300.400,26.000 300.400 C 26.220 300.400,26.400 300.670,26.400 301.000 C 26.400 301.330,26.560 301.600,26.757 301.600 C 26.953 301.600,27.232 302.074,27.377 302.653 C 27.652 303.745,30.697 308.499,31.272 308.733 C 31.453 308.807,31.600 309.172,31.600 309.545 C 31.600 309.918,31.960 310.483,32.400 310.800 C 32.840 311.117,33.200 311.657,33.200 312.000 C 33.200 312.343,33.560 312.883,34.000 313.200 C 34.440 313.517,34.800 313.962,34.801 314.188 C 34.801 314.415,35.341 315.230,36.000 316.000 C 36.659 316.770,37.199 317.585,37.199 317.812 C 37.200 318.038,37.560 318.483,38.000 318.800 C 38.440 319.117,38.800 319.572,38.800 319.810 C 38.800 320.049,39.385 320.902,40.100 321.706 C 42.230 324.100,43.515 325.709,44.614 327.357 C 45.186 328.213,46.361 329.594,47.227 330.425 C 48.092 331.257,48.800 332.109,48.800 332.319 C 48.800 332.529,50.774 334.658,53.186 337.050 C 58.400 342.222,59.134 342.956,63.758 347.615 C 65.715 349.587,67.474 351.200,67.667 351.200 C 67.860 351.200,69.007 352.190,70.217 353.400 C 71.427 354.610,72.571 355.600,72.758 355.600 C 72.946 355.600,73.887 356.320,74.849 357.200 C 75.812 358.080,76.736 358.800,76.903 358.800 C 77.071 358.800,77.772 359.340,78.463 360.000 C 79.154 360.660,79.922 361.200,80.171 361.200 C 80.420 361.200,80.883 361.560,81.200 362.000 C 81.517 362.440,81.962 362.800,82.188 362.801 C 82.415 362.801,83.230 363.341,84.000 364.000 C 84.770 364.659,85.585 365.199,85.812 365.199 C 86.038 365.200,86.483 365.560,86.800 366.000 C 87.117 366.440,87.657 366.800,88.000 366.800 C 88.343 366.800,88.883 367.160,89.200 367.600 C 89.517 368.040,90.097 368.400,90.488 368.400 C 90.880 368.400,91.200 368.550,91.200 368.732 C 91.200 368.915,91.695 369.320,92.300 369.632 C 92.905 369.945,93.718 370.486,94.107 370.836 C 94.495 371.186,95.302 371.726,95.898 372.036 C 96.495 372.346,97.966 373.185,99.168 373.900 C 100.370 374.615,101.679 375.200,102.076 375.200 C 102.474 375.200,102.800 375.352,102.800 375.537 C 102.800 375.723,103.655 376.308,104.700 376.837 C 105.745 377.367,106.660 377.935,106.733 378.100 C 106.807 378.265,107.212 378.400,107.633 378.400 C 108.055 378.400,108.400 378.580,108.400 378.800 C 108.400 379.020,108.760 379.200,109.200 379.200 C 109.640 379.200,110.000 379.380,110.000 379.600 C 110.000 379.820,110.360 380.000,110.800 380.000 C 111.240 380.000,111.600 380.136,111.600 380.302 C 111.600 380.469,112.185 380.840,112.900 381.129 C 113.615 381.417,114.513 381.821,114.895 382.026 C 115.277 382.232,115.862 382.400,116.195 382.400 C 116.528 382.400,116.800 382.580,116.800 382.800 C 116.800 383.020,117.160 383.200,117.600 383.200 C 118.040 383.200,118.400 383.380,118.400 383.600 C 118.400 383.820,118.760 384.000,119.200 384.000 C 119.640 384.000,120.000 384.180,120.000 384.400 C 120.000 384.620,120.349 384.800,120.776 384.800 C 121.203 384.800,121.664 384.980,121.800 385.200 C 121.936 385.420,122.487 385.600,123.024 385.600 C 123.561 385.600,124.000 385.780,124.000 386.000 C 124.000 386.220,124.272 386.400,124.604 386.400 C 124.937 386.400,126.062 386.778,127.104 387.240 C 128.147 387.702,129.360 388.235,129.800 388.425 C 131.901 389.330,139.322 391.600,140.182 391.600 C 140.716 391.600,141.264 391.780,141.400 392.000 C 141.536 392.220,142.166 392.400,142.800 392.400 C 143.434 392.400,144.064 392.580,144.200 392.800 C 144.336 393.020,144.966 393.200,145.600 393.200 C 146.234 393.200,146.864 393.380,147.000 393.600 C 147.136 393.820,147.777 394.000,148.424 394.000 C 149.071 394.000,149.600 394.180,149.600 394.400 C 149.600 394.620,150.309 394.800,151.176 394.800 C 152.043 394.800,152.864 394.980,153.000 395.200 C 153.136 395.420,154.047 395.600,155.024 395.600 C 156.001 395.600,156.800 395.780,156.800 396.000 C 156.800 396.220,157.509 396.400,158.376 396.400 C 159.243 396.400,160.064 396.580,160.200 396.800 C 160.336 397.020,161.337 397.200,162.424 397.200 C 163.511 397.200,164.400 397.380,164.400 397.600 C 164.400 397.820,165.379 398.000,166.576 398.000 C 167.773 398.000,168.864 398.180,169.000 398.400 C 169.136 398.620,170.461 398.800,171.944 398.800 C 173.567 398.800,174.839 398.999,175.140 399.300 C 175.529 399.689,181.045 399.800,200.000 399.800 C 218.955 399.800,224.471 399.689,224.860 399.300 C 225.161 398.999,226.433 398.800,228.056 398.800 C 229.539 398.800,230.864 398.620,231.000 398.400 C 231.136 398.180,232.227 398.000,233.424 398.000 C 234.621 398.000,235.600 397.820,235.600 397.600 C 235.600 397.380,236.590 397.200,237.800 397.200 C 239.010 397.200,240.000 397.020,240.000 396.800 C 240.000 396.580,240.720 396.400,241.600 396.400 C 242.480 396.400,243.200 396.220,243.200 396.000 C 243.200 395.780,243.999 395.600,244.976 395.600 C 245.953 395.600,246.864 395.420,247.000 395.200 C 247.136 394.980,247.957 394.800,248.824 394.800 C 249.691 394.800,250.400 394.620,250.400 394.400 C 250.400 394.180,250.929 394.000,251.576 394.000 C 252.223 394.000,252.864 393.820,253.000 393.600 C 253.136 393.380,253.867 393.200,254.624 393.200 C 255.381 393.200,256.000 393.020,256.000 392.800 C 256.000 392.580,256.630 392.400,257.400 392.400 C 258.170 392.400,258.800 392.220,258.800 392.000 C 258.800 391.780,259.241 391.600,259.780 391.600 C 260.960 391.600,269.744 388.755,269.933 388.312 C 270.007 388.140,270.414 388.000,270.839 388.000 C 271.263 388.000,271.968 387.820,272.405 387.600 C 272.842 387.380,273.558 387.020,273.995 386.800 C 274.432 386.580,275.062 386.400,275.395 386.400 C 275.728 386.400,276.000 386.220,276.000 386.000 C 276.000 385.780,276.439 385.600,276.976 385.600 C 277.513 385.600,278.064 385.420,278.200 385.200 C 278.336 384.980,278.797 384.800,279.224 384.800 C 279.651 384.800,280.000 384.620,280.000 384.400 C 280.000 384.180,280.360 384.000,280.800 384.000 C 281.240 384.000,281.600 383.820,281.600 383.600 C 281.600 383.380,281.960 383.200,282.400 383.200 C 282.840 383.200,283.200 383.020,283.200 382.800 C 283.200 382.580,283.472 382.400,283.805 382.400 C 284.138 382.400,284.723 382.240,285.105 382.044 C 285.487 381.848,286.700 381.263,287.800 380.744 C 288.900 380.225,289.860 379.665,289.933 379.500 C 290.007 379.335,290.412 379.200,290.833 379.200 C 291.255 379.200,291.600 379.020,291.600 378.800 C 291.600 378.580,291.960 378.400,292.400 378.400 C 292.840 378.400,293.200 378.220,293.200 378.000 C 293.200 377.780,293.560 377.600,294.000 377.600 C 294.440 377.600,294.800 377.420,294.800 377.200 C 294.800 376.980,295.036 376.800,295.325 376.800 C 295.613 376.800,296.236 376.440,296.708 376.000 C 297.180 375.560,297.810 375.200,298.107 375.200 C 298.404 375.200,299.693 374.570,300.972 373.800 C 302.251 373.030,303.375 372.400,303.470 372.400 C 303.804 372.400,308.601 369.053,308.733 368.728 C 308.807 368.547,309.172 368.400,309.545 368.400 C 309.918 368.400,310.483 368.040,310.800 367.600 C 311.117 367.160,311.657 366.800,312.000 366.800 C 312.343 366.800,312.883 366.440,313.200 366.000 C 313.517 365.560,313.962 365.200,314.188 365.199 C 314.415 365.199,315.230 364.659,316.000 364.000 C 316.770 363.341,317.585 362.801,317.812 362.801 C 318.038 362.800,318.483 362.440,318.800 362.000 C 319.117 361.560,319.613 361.200,319.902 361.200 C 320.190 361.200,321.057 360.570,321.827 359.800 C 322.597 359.030,323.374 358.400,323.554 358.400 C 323.734 358.400,324.446 357.860,325.137 357.200 C 325.828 356.540,326.559 356.000,326.761 356.000 C 326.964 356.000,328.227 354.920,329.568 353.600 C 330.908 352.280,332.178 351.200,332.390 351.200 C 332.899 351.200,351.200 332.888,351.200 332.378 C 351.200 332.161,352.190 330.993,353.400 329.783 C 354.610 328.573,355.600 327.429,355.600 327.242 C 355.600 327.054,356.230 326.213,357.000 325.372 C 357.770 324.531,358.400 323.705,358.400 323.535 C 358.400 323.365,359.030 322.597,359.800 321.827 C 360.570 321.057,361.200 320.190,361.200 319.902 C 361.200 319.613,361.560 319.117,362.000 318.800 C 362.440 318.483,362.800 318.038,362.801 317.812 C 362.801 317.585,363.341 316.770,364.000 316.000 C 364.659 315.230,365.199 314.415,365.199 314.188 C 365.200 313.962,365.560 313.517,366.000 313.200 C 366.440 312.883,366.800 312.343,366.800 312.000 C 366.800 311.657,367.160 311.117,367.600 310.800 C 368.040 310.483,368.400 309.918,368.400 309.545 C 368.400 309.172,368.547 308.807,368.728 308.733 C 369.127 308.571,371.995 304.261,372.810 302.600 C 373.134 301.940,373.509 301.310,373.644 301.200 C 374.032 300.882,375.200 298.484,375.200 298.003 C 375.200 297.763,375.560 297.180,376.000 296.708 C 376.440 296.236,376.800 295.613,376.800 295.325 C 376.800 295.036,376.980 294.800,377.200 294.800 C 377.420 294.800,377.600 294.440,377.600 294.000 C 377.600 293.560,377.780 293.200,378.000 293.200 C 378.220 293.200,378.400 292.840,378.400 292.400 C 378.400 291.960,378.580 291.600,378.800 291.600 C 379.020 291.600,379.200 291.255,379.200 290.833 C 379.200 290.412,379.335 290.007,379.500 289.933 C 379.665 289.860,380.225 288.900,380.744 287.800 C 381.263 286.700,381.848 285.487,382.044 285.105 C 382.240 284.723,382.400 284.138,382.400 283.805 C 382.400 283.472,382.580 283.200,382.800 283.200 C 383.020 283.200,383.200 282.840,383.200 282.400 C 383.200 281.960,383.380 281.600,383.600 281.600 C 383.820 281.600,384.000 281.240,384.000 280.800 C 384.000 280.360,384.180 280.000,384.400 280.000 C 384.620 280.000,384.800 279.651,384.800 279.224 C 384.800 278.797,384.980 278.336,385.200 278.200 C 385.420 278.064,385.600 277.513,385.600 276.976 C 385.600 276.439,385.780 276.000,386.000 276.000 C 386.220 276.000,386.400 275.728,386.400 275.395 C 386.400 275.062,386.580 274.432,386.800 273.995 C 387.020 273.558,387.380 272.842,387.600 272.405 C 387.820 271.968,388.000 271.263,388.000 270.839 C 388.000 270.414,388.140 270.007,388.312 269.933 C 388.755 269.744,391.600 260.960,391.600 259.780 C 391.600 259.241,391.780 258.800,392.000 258.800 C 392.220 258.800,392.400 258.170,392.400 257.400 C 392.400 256.630,392.580 256.000,392.800 256.000 C 393.020 256.000,393.200 255.381,393.200 254.624 C 393.200 253.867,393.380 253.136,393.600 253.000 C 393.820 252.864,394.000 252.223,394.000 251.576 C 394.000 250.929,394.180 250.400,394.400 250.400 C 394.620 250.400,394.800 249.691,394.800 248.824 C 394.800 247.957,394.980 247.136,395.200 247.000 C 395.420 246.864,395.600 245.953,395.600 244.976 C 395.600 243.999,395.780 243.200,396.000 243.200 C 396.220 243.200,396.400 242.480,396.400 241.600 C 396.400 240.720,396.580 240.000,396.800 240.000 C 397.020 240.000,397.200 239.010,397.200 237.800 C 397.200 236.590,397.380 235.600,397.600 235.600 C 397.820 235.600,398.000 234.621,398.000 233.424 C 398.000 232.227,398.180 231.136,398.400 231.000 C 398.620 230.864,398.800 229.539,398.800 228.056 C 398.800 226.433,398.999 225.161,399.300 224.860 C 400.029 224.131,400.029 175.869,399.300 175.140 C 398.999 174.839,398.800 173.567,398.800 171.944 C 398.800 170.461,398.620 169.136,398.400 169.000 C 398.180 168.864,398.000 167.773,398.000 166.576 C 398.000 165.379,397.820 164.400,397.600 164.400 C 397.380 164.400,397.200 163.511,397.200 162.424 C 397.200 161.337,397.020 160.336,396.800 160.200 C 396.580 160.064,396.400 159.243,396.400 158.376 C 396.400 157.509,396.220 156.800,396.000 156.800 C 395.780 156.800,395.600 156.001,395.600 155.024 C 395.600 154.047,395.420 153.136,395.200 153.000 C 394.980 152.864,394.800 152.043,394.800 151.176 C 394.800 150.309,394.620 149.600,394.400 149.600 C 394.180 149.600,394.000 149.071,394.000 148.424 C 394.000 147.777,393.820 147.136,393.600 147.000 C 393.380 146.864,393.200 146.234,393.200 145.600 C 393.200 144.966,393.020 144.336,392.800 144.200 C 392.580 144.064,392.400 143.434,392.400 142.800 C 392.400 142.166,392.220 141.536,392.000 141.400 C 391.780 141.264,391.600 140.722,391.600 140.196 C 391.600 139.033,388.750 130.254,388.312 130.067 C 388.140 129.993,388.000 129.622,388.000 129.242 C 388.000 128.861,387.640 127.805,387.200 126.894 C 386.760 125.984,386.400 124.960,386.400 124.619 C 386.400 124.279,386.220 124.000,386.000 124.000 C 385.780 124.000,385.600 123.561,385.600 123.024 C 385.600 122.487,385.420 121.936,385.200 121.800 C 384.980 121.664,384.800 121.203,384.800 120.776 C 384.800 120.349,384.620 120.000,384.400 120.000 C 384.180 120.000,384.000 119.640,384.000 119.200 C 384.000 118.760,383.820 118.400,383.600 118.400 C 383.380 118.400,383.200 118.040,383.200 117.600 C 383.200 117.160,383.020 116.800,382.800 116.800 C 382.580 116.800,382.400 116.528,382.400 116.195 C 382.400 115.862,382.232 115.277,382.026 114.895 C 381.821 114.513,381.417 113.615,381.129 112.900 C 380.840 112.185,380.469 111.600,380.302 111.600 C 380.136 111.600,380.000 111.240,380.000 110.800 C 380.000 110.360,379.820 110.000,379.600 110.000 C 379.380 110.000,379.200 109.640,379.200 109.200 C 379.200 108.760,379.020 108.400,378.800 108.400 C 378.580 108.400,378.400 108.055,378.400 107.633 C 378.400 107.212,378.265 106.807,378.100 106.733 C 377.935 106.660,377.367 105.745,376.837 104.700 C 376.308 103.655,375.723 102.800,375.537 102.800 C 375.352 102.800,375.200 102.521,375.200 102.180 C 375.200 101.553,374.099 99.168,373.639 98.800 C 373.502 98.690,372.962 97.753,372.441 96.718 C 371.919 95.682,371.202 94.512,370.846 94.118 C 370.491 93.723,369.945 92.905,369.632 92.300 C 369.320 91.695,368.915 91.200,368.732 91.200 C 368.550 91.200,368.400 90.880,368.400 90.488 C 368.400 90.097,368.040 89.517,367.600 89.200 C 367.160 88.883,366.800 88.343,366.800 88.000 C 366.800 87.657,366.440 87.117,366.000 86.800 C 365.560 86.483,365.200 86.038,365.199 85.812 C 365.199 85.585,364.659 84.770,364.000 84.000 C 363.341 83.230,362.801 82.415,362.801 82.188 C 362.800 81.962,362.440 81.517,362.000 81.200 C 361.560 80.883,361.200 80.428,361.200 80.190 C 361.200 79.951,360.570 79.069,359.800 78.228 C 359.030 77.387,358.400 76.577,358.400 76.428 C 358.400 76.279,357.770 75.469,357.000 74.628 C 356.230 73.787,355.600 72.946,355.600 72.758 C 355.600 72.571,354.610 71.427,353.400 70.217 C 352.190 69.007,351.200 67.860,351.200 67.667 C 351.200 67.474,349.587 65.715,347.615 63.758 C 342.956 59.134,342.222 58.400,337.050 53.186 C 334.658 50.774,332.529 48.800,332.319 48.800 C 332.109 48.800,331.257 48.092,330.425 47.227 C 329.594 46.361,328.213 45.186,327.357 44.614 C 325.709 43.515,324.100 42.230,321.706 40.100 C 320.902 39.385,320.049 38.800,319.810 38.800 C 319.572 38.800,319.117 38.440,318.800 38.000 C 318.483 37.560,318.038 37.200,317.812 37.199 C 317.585 37.199,316.770 36.659,316.000 36.000 C 315.230 35.341,314.415 34.801,314.188 34.801 C 313.962 34.800,313.517 34.440,313.200 34.000 C 312.883 33.560,312.343 33.200,312.000 33.200 C 311.657 33.200,311.117 32.840,310.800 32.400 C 310.483 31.960,309.918 31.600,309.545 31.600 C 309.172 31.600,308.807 31.453,308.733 31.272 C 308.499 30.697,303.745 27.652,302.653 27.377 C 302.074 27.232,301.600 26.953,301.600 26.757 C 301.600 26.560,301.330 26.400,301.000 26.400 C 300.670 26.400,300.400 26.220,300.400 26.000 C 300.400 25.780,300.040 25.600,299.600 25.600 C 299.160 25.600,298.800 25.420,298.800 25.200 C 298.800 24.980,298.440 24.800,298.000 24.800 C 297.560 24.800,297.200 24.648,297.200 24.463 C 297.200 24.277,296.345 23.692,295.300 23.163 C 294.255 22.633,293.340 22.065,293.267 21.900 C 293.193 21.735,292.788 21.600,292.367 21.600 C 291.945 21.600,291.600 21.420,291.600 21.200 C 291.600 20.980,291.255 20.800,290.833 20.800 C 290.412 20.800,290.007 20.665,289.933 20.500 C 289.860 20.335,288.900 19.775,287.800 19.256 C 286.700 18.737,285.487 18.152,285.105 17.956 C 284.723 17.760,284.138 17.600,283.805 17.600 C 283.472 17.600,283.200 17.420,283.200 17.200 C 283.200 16.980,282.840 16.800,282.400 16.800 C 281.960 16.800,281.600 16.620,281.600 16.400 C 281.600 16.180,281.240 16.000,280.800 16.000 C 280.360 16.000,280.000 15.820,280.000 15.600 C 280.000 15.380,279.651 15.200,279.224 15.200 C 278.797 15.200,278.336 15.020,278.200 14.800 C 278.064 14.580,277.513 14.400,276.976 14.400 C 276.439 14.400,276.000 14.220,276.000 14.000 C 276.000 13.780,275.728 13.600,275.395 13.600 C 275.062 13.600,274.477 13.441,274.095 13.247 C 271.730 12.044,266.973 10.355,265.300 10.125 C 264.365 9.997,263.600 9.736,263.600 9.546 C 263.600 9.356,263.060 9.200,262.400 9.200 C 261.740 9.200,261.200 9.020,261.200 8.800 C 261.200 8.580,260.671 8.400,260.024 8.400 C 259.377 8.400,258.736 8.220,258.600 8.000 C 258.464 7.780,257.823 7.600,257.176 7.600 C 256.529 7.600,256.000 7.420,256.000 7.200 C 256.000 6.980,255.381 6.800,254.624 6.800 C 253.867 6.800,253.136 6.620,253.000 6.400 C 252.864 6.180,252.223 6.000,251.576 6.000 C 250.929 6.000,250.400 5.820,250.400 5.600 C 250.400 5.380,249.691 5.200,248.824 5.200 C 247.957 5.200,247.136 5.020,247.000 4.800 C 246.864 4.580,245.953 4.400,244.976 4.400 C 243.999 4.400,243.200 4.220,243.200 4.000 C 243.200 3.780,242.491 3.600,241.624 3.600 C 240.757 3.600,239.936 3.420,239.800 3.200 C 239.664 2.980,238.663 2.800,237.576 2.800 C 236.489 2.800,235.600 2.620,235.600 2.400 C 235.600 2.180,234.621 2.000,233.424 2.000 C 232.227 2.000,231.136 1.820,231.000 1.600 C 230.864 1.380,229.539 1.200,228.056 1.200 C 226.478 1.200,225.159 0.999,224.875 0.715 C 224.394 0.234,187.860 -0.116,179.003 0.275 M205.754 106.432 C 209.877 107.513,210.759 107.810,213.200 108.940 C 216.979 110.689,219.071 112.177,222.000 115.199 C 227.192 120.555,229.286 123.909,236.610 138.600 C 238.585 142.560,240.294 145.890,240.409 146.000 C 241.167 146.725,263.054 190.982,269.389 204.600 C 270.991 208.043,273.351 213.016,276.413 219.400 C 285.886 239.151,287.600 244.246,287.600 252.652 C 287.600 255.432,287.429 258.358,287.220 259.154 C 287.010 259.949,286.460 262.130,285.997 264.000 C 285.282 266.887,282.864 272.511,281.093 275.406 C 277.154 281.847,269.304 288.246,261.600 291.297 C 261.050 291.515,260.287 291.852,259.905 292.047 C 259.523 292.241,258.769 292.400,258.229 292.400 C 257.689 292.400,257.152 292.554,257.035 292.743 C 256.223 294.058,241.247 294.111,237.200 292.813 C 236.650 292.637,235.390 292.271,234.400 292.001 C 233.410 291.730,232.195 291.349,231.700 291.154 C 231.205 290.959,230.395 290.642,229.900 290.449 C 222.180 287.438,213.679 281.451,204.620 272.646 L 199.840 268.000 195.220 272.502 C 188.176 279.364,184.066 282.714,178.800 285.885 C 175.375 287.947,169.509 290.800,168.694 290.800 C 168.338 290.800,167.936 290.980,167.800 291.200 C 167.664 291.420,167.124 291.600,166.600 291.600 C 166.076 291.600,165.548 291.760,165.427 291.956 C 165.306 292.151,164.621 292.415,163.904 292.541 C 163.187 292.667,161.430 292.988,160.000 293.256 C 156.691 293.875,148.070 293.894,145.200 293.290 C 143.990 293.035,142.413 292.709,141.695 292.567 C 140.977 292.424,140.292 292.149,140.171 291.954 C 140.051 291.759,139.648 291.600,139.275 291.600 C 138.902 291.600,137.078 290.863,135.222 289.963 C 123.861 284.452,115.902 274.402,113.079 262.000 C 112.259 258.398,112.599 246.230,113.587 243.800 C 113.766 243.360,114.124 242.190,114.383 241.200 C 115.015 238.788,119.171 229.025,123.025 220.900 C 123.781 219.305,125.052 216.605,125.849 214.900 C 126.646 213.195,128.071 210.180,129.014 208.200 C 129.958 206.220,131.173 203.610,131.714 202.400 C 132.255 201.190,134.449 196.600,136.588 192.200 C 138.727 187.800,141.044 183.030,141.737 181.600 C 142.430 180.170,143.132 178.940,143.298 178.867 C 143.464 178.793,143.600 178.522,143.600 178.263 C 143.600 177.512,168.706 127.849,170.052 125.938 C 170.463 125.354,170.800 124.757,170.800 124.610 C 170.800 124.326,173.182 120.734,173.593 120.400 C 173.728 120.290,174.270 119.570,174.798 118.800 C 176.768 115.923,183.755 110.000,185.178 110.000 C 185.410 110.000,185.600 109.864,185.600 109.698 C 185.600 109.531,186.185 109.160,186.900 108.871 C 187.615 108.583,188.513 108.179,188.895 107.974 C 189.277 107.768,189.941 107.600,190.371 107.600 C 190.801 107.600,191.264 107.420,191.400 107.200 C 191.536 106.980,192.222 106.787,192.924 106.772 C 193.626 106.756,194.560 106.589,195.000 106.400 C 196.158 105.902,203.820 105.925,205.754 106.432 M196.800 119.395 C 188.192 121.317,184.844 125.141,175.433 143.800 C 174.323 146.000,173.311 147.890,173.184 148.000 C 172.928 148.222,149.951 194.373,146.002 202.600 C 139.738 215.647,135.200 225.222,135.200 225.393 C 135.200 225.457,134.286 227.465,133.168 229.855 C 130.428 235.714,129.179 238.443,128.798 239.400 C 128.623 239.840,128.102 241.053,127.640 242.096 C 127.178 243.138,126.800 244.266,126.800 244.601 C 126.800 244.936,126.636 245.523,126.435 245.905 C 124.907 248.816,124.863 259.012,126.361 263.000 C 132.093 278.257,147.354 285.461,163.000 280.294 C 166.087 279.274,170.145 277.364,172.272 275.928 C 173.192 275.308,174.137 274.800,174.372 274.800 C 174.607 274.800,174.800 274.659,174.800 274.486 C 174.800 274.314,175.295 273.875,175.900 273.511 C 180.177 270.939,191.949 259.688,191.359 258.734 C 191.192 258.463,189.768 256.522,188.196 254.421 C 181.085 244.919,176.044 236.395,171.980 227.000 C 163.214 206.736,168.601 186.739,185.000 178.673 C 185.880 178.241,187.050 177.711,187.600 177.497 C 188.150 177.282,188.913 176.948,189.295 176.753 C 189.677 176.559,190.431 176.400,190.971 176.400 C 191.511 176.400,192.064 176.220,192.200 176.000 C 192.336 175.780,193.132 175.600,193.969 175.600 C 194.806 175.600,196.450 175.418,197.622 175.196 C 203.079 174.161,212.591 176.595,218.600 180.564 C 222.716 183.282,229.200 190.583,229.200 192.498 C 229.200 192.796,229.359 193.211,229.553 193.420 C 230.079 193.985,231.442 198.248,232.014 201.114 C 232.686 204.484,232.279 212.350,231.192 217.000 C 230.729 218.980,230.251 221.097,230.129 221.705 C 230.007 222.313,229.749 222.908,229.554 223.029 C 229.359 223.149,229.200 223.599,229.200 224.029 C 229.200 224.459,229.041 225.123,228.847 225.505 C 228.652 225.887,228.314 226.650,228.094 227.200 C 227.283 229.231,223.377 237.075,222.019 239.400 C 221.248 240.720,220.344 242.294,220.009 242.898 C 219.117 244.506,213.002 253.201,211.779 254.600 C 211.203 255.260,210.437 256.295,210.079 256.900 C 209.721 257.505,209.286 258.000,209.114 258.000 C 204.569 258.000,226.417 276.172,234.600 279.197 C 235.040 279.360,235.850 279.677,236.400 279.901 C 241.606 282.025,250.856 282.472,255.000 280.801 C 255.440 280.623,256.880 280.068,258.200 279.567 C 265.585 276.764,271.478 270.195,273.957 262.000 C 275.645 256.422,275.260 246.741,273.166 242.104 C 272.745 241.172,272.400 240.321,272.400 240.214 C 272.400 240.107,271.842 238.801,271.160 237.310 C 270.478 235.820,269.111 232.800,268.123 230.600 C 266.399 226.764,264.571 222.875,261.448 216.396 C 260.652 214.745,260.000 213.170,260.000 212.896 C 260.000 212.623,259.820 212.400,259.600 212.400 C 259.380 212.400,259.200 212.170,259.200 211.890 C 259.200 211.609,257.580 208.088,255.600 204.066 C 253.620 200.044,252.000 196.648,252.000 196.520 C 252.000 196.392,245.969 184.208,238.598 169.444 C 218.851 129.891,217.808 128.019,213.221 123.895 C 208.728 119.855,202.448 118.134,196.800 119.395 M195.800 187.447 C 194.503 187.643,194.212 187.754,190.600 189.430 C 181.041 193.866,178.089 205.600,182.948 219.852 C 184.337 223.928,189.699 234.777,190.500 235.133 C 190.665 235.207,190.800 235.522,190.800 235.833 C 190.800 236.145,190.936 236.400,191.102 236.400 C 191.269 236.400,191.630 236.895,191.905 237.500 C 192.576 238.975,199.582 248.400,200.008 248.400 C 200.194 248.400,201.355 247.005,202.590 245.300 C 203.825 243.595,205.053 241.919,205.318 241.576 C 206.709 239.777,207.600 238.387,207.600 238.016 C 207.600 237.787,207.780 237.600,208.000 237.600 C 208.220 237.600,208.400 237.403,208.400 237.162 C 208.400 236.921,208.739 236.246,209.153 235.662 C 213.737 229.195,218.418 217.578,219.237 210.632 C 220.568 199.342,216.483 192.025,206.610 188.018 C 205.381 187.519,197.924 187.125,195.800 187.447 " stroke="none" fill="#fc5c64" fill-rule="evenodd"></path><path id="path2" d="M195.115 106.328 C 194.738 106.478,197.026 106.600,200.200 106.600 C 203.374 106.600,205.662 106.478,205.285 106.328 C 204.908 106.179,202.620 106.056,200.200 106.056 C 197.780 106.056,195.492 106.179,195.115 106.328 M191.390 107.216 C 191.221 107.489,191.523 107.538,192.266 107.360 C 193.799 106.992,193.944 106.800,192.690 106.800 C 192.117 106.800,191.532 106.987,191.390 107.216 M206.833 106.944 C 206.925 107.023,207.540 107.208,208.200 107.356 C 209.076 107.552,209.238 107.515,208.800 107.218 C 208.260 106.853,206.432 106.598,206.833 106.944 M216.969 111.149 C 217.359 111.782,219.601 113.299,219.595 112.927 C 219.592 112.747,218.943 112.181,218.152 111.668 C 217.360 111.155,216.828 110.922,216.969 111.149 M221.200 114.600 C 221.946 115.370,222.647 116.000,222.757 116.000 C 222.867 116.000,222.346 115.370,221.600 114.600 C 220.854 113.830,220.153 113.200,220.043 113.200 C 219.933 113.200,220.454 113.830,221.200 114.600 M196.200 119.200 L 195.400 119.544 196.200 119.532 C 196.640 119.526,197.450 119.376,198.000 119.200 L 199.000 118.880 198.000 118.868 C 197.450 118.862,196.640 119.011,196.200 119.200 M202.033 118.947 C 202.125 119.028,202.920 119.204,203.800 119.338 C 204.915 119.507,205.158 119.471,204.600 119.219 C 203.832 118.871,201.690 118.644,202.033 118.947 M172.072 122.445 C 170.285 125.178,170.617 125.267,172.483 122.555 C 173.298 121.370,173.838 120.403,173.683 120.407 C 173.527 120.411,172.802 121.328,172.072 122.445 M189.744 121.969 C 189.053 122.390,188.357 122.946,188.198 123.204 C 188.039 123.461,188.649 123.182,189.554 122.583 C 190.979 121.640,191.476 121.196,191.100 121.201 C 191.045 121.202,190.435 121.548,189.744 121.969 M214.185 124.721 C 216.140 126.769,217.023 127.463,215.949 126.107 C 215.160 125.111,213.909 123.890,212.993 123.221 C 212.557 122.903,213.093 123.578,214.185 124.721 M169.903 126.100 C 169.041 127.417,167.049 131.469,167.494 131.000 C 167.964 130.504,170.840 125.200,170.638 125.200 C 170.558 125.200,170.227 125.605,169.903 126.100 M185.144 126.300 C 183.993 127.689,183.506 128.400,183.704 128.400 C 183.814 128.400,184.386 127.770,184.973 127.000 C 186.063 125.571,186.195 125.032,185.144 126.300 M229.615 125.800 C 229.617 126.020,229.986 126.650,230.436 127.200 C 230.979 127.864,231.115 127.931,230.840 127.400 C 230.166 126.095,229.612 125.372,229.615 125.800 M216.684 127.600 C 217.524 128.953,218.800 130.483,218.800 130.139 C 218.800 129.936,218.240 129.147,217.556 128.385 C 216.871 127.623,216.479 127.270,216.684 127.600 M181.814 131.035 C 181.441 131.604,181.205 132.138,181.289 132.222 C 181.373 132.307,181.758 131.841,182.144 131.188 C 183.006 129.728,182.748 129.609,181.814 131.035 M219.160 131.400 C 219.834 132.705,220.388 133.428,220.385 133.000 C 220.383 132.780,220.014 132.150,219.564 131.600 C 219.021 130.936,218.885 130.869,219.160 131.400 M234.682 135.389 C 235.273 136.593,235.823 137.511,235.905 137.429 C 236.084 137.249,234.067 133.200,233.798 133.200 C 233.694 133.200,234.092 134.185,234.682 135.389 M221.200 135.200 C 221.649 136.080,222.106 136.800,222.216 136.800 C 222.326 136.800,222.049 136.080,221.600 135.200 C 221.151 134.320,220.694 133.600,220.584 133.600 C 220.474 133.600,220.751 134.320,221.200 135.200 M177.840 138.398 C 177.240 139.499,176.836 140.400,176.941 140.400 C 177.208 140.400,179.243 136.710,179.071 136.537 C 178.993 136.460,178.439 137.297,177.840 138.398 M223.206 138.850 C 223.197 139.205,225.233 142.800,225.442 142.800 C 225.538 142.800,225.260 142.125,224.824 141.300 C 223.878 139.511,223.215 138.506,223.206 138.850 M157.516 150.100 C 156.842 151.154,156.348 152.400,156.604 152.400 C 156.703 152.400,157.151 151.680,157.600 150.800 C 158.487 149.061,158.439 148.658,157.516 150.100 M170.278 153.005 C 169.912 153.772,169.695 154.400,169.796 154.400 C 170.070 154.400,171.284 151.951,171.101 151.768 C 171.014 151.681,170.644 152.238,170.278 153.005 M155.262 154.462 C 154.777 155.370,154.442 156.176,154.518 156.252 C 154.595 156.328,155.054 155.647,155.538 154.738 C 156.023 153.830,156.358 153.024,156.282 152.948 C 156.205 152.872,155.746 153.553,155.262 154.462 M167.880 157.680 C 167.492 158.356,167.257 158.991,167.358 159.091 C 167.459 159.192,167.838 158.701,168.200 158.000 C 169.057 156.343,168.797 156.083,167.880 157.680 M153.040 158.871 C 152.472 160.009,152.067 161.001,152.140 161.073 C 152.247 161.181,152.924 159.937,154.302 157.100 C 154.382 156.935,154.363 156.800,154.259 156.800 C 154.156 156.800,153.607 157.732,153.040 158.871 M246.049 157.400 C 246.567 158.704,248.048 161.600,248.197 161.600 C 248.448 161.600,247.987 160.440,247.084 158.800 C 246.320 157.410,245.745 156.633,246.049 157.400 M162.412 168.453 C 161.290 170.682,160.439 172.572,160.520 172.654 C 160.648 172.782,163.621 167.104,164.476 165.100 C 165.366 163.011,164.186 164.930,162.412 168.453 M237.709 167.500 C 237.795 167.665,238.174 168.475,238.552 169.300 C 238.929 170.125,239.330 170.800,239.442 170.800 C 239.555 170.800,239.577 170.665,239.491 170.500 C 239.405 170.335,239.026 169.525,238.648 168.700 C 238.271 167.875,237.870 167.200,237.758 167.200 C 237.645 167.200,237.623 167.335,237.709 167.500 M254.000 173.353 C 254.000 173.782,255.190 176.000,255.421 176.000 C 255.531 176.000,255.323 175.415,254.959 174.700 C 254.217 173.240,254.000 172.936,254.000 173.353 M197.600 175.182 C 196.702 175.359,197.636 175.459,200.200 175.461 C 203.317 175.463,203.803 175.397,202.400 175.161 C 200.282 174.806,199.486 174.809,197.600 175.182 M192.204 175.994 C 192.052 176.240,192.455 176.294,193.280 176.137 C 195.049 175.800,195.201 175.600,193.690 175.600 C 193.007 175.600,192.338 175.777,192.204 175.994 M205.633 175.743 C 205.725 175.821,206.430 176.001,207.200 176.142 C 208.185 176.323,208.422 176.282,208.000 176.006 C 207.458 175.650,205.237 175.403,205.633 175.743 M189.400 176.800 C 189.108 177.273,189.499 177.273,190.600 176.800 C 191.371 176.469,191.369 176.455,190.524 176.428 C 190.042 176.413,189.536 176.580,189.400 176.800 M215.600 178.990 C 215.600 179.094,216.185 179.465,216.900 179.814 L 218.200 180.448 217.200 179.633 C 216.237 178.848,215.600 178.592,215.600 178.990 M141.029 182.861 C 140.436 184.051,140.176 185.157,140.587 184.746 C 140.900 184.433,142.023 181.600,141.835 181.600 C 141.738 181.600,141.375 182.168,141.029 182.861 M176.977 184.510 L 174.600 187.000 176.991 184.800 C 178.306 183.590,179.461 182.555,179.557 182.500 C 179.654 182.445,179.648 182.315,179.544 182.210 C 179.440 182.106,178.285 183.141,176.977 184.510 M224.004 185.500 C 225.412 187.095,226.633 188.400,226.719 188.400 C 226.984 188.400,223.742 184.656,222.563 183.600 C 221.949 183.050,222.597 183.905,224.004 185.500 M260.509 186.700 C 260.595 186.865,260.974 187.675,261.352 188.500 C 261.729 189.325,262.130 190.000,262.242 190.000 C 262.355 190.000,262.377 189.865,262.291 189.700 C 262.205 189.535,261.826 188.725,261.448 187.900 C 261.071 187.075,260.670 186.400,260.558 186.400 C 260.445 186.400,260.423 186.535,260.509 186.700 M196.076 187.140 C 195.568 187.283,197.334 187.400,200.000 187.400 C 202.666 187.400,204.432 187.283,203.924 187.140 C 203.416 186.997,201.650 186.880,200.000 186.880 C 198.350 186.880,196.584 186.997,196.076 187.140 M227.900 190.779 C 228.505 191.867,229.056 192.600,229.124 192.407 C 229.241 192.076,227.263 188.800,226.947 188.800 C 226.866 188.800,227.295 189.690,227.900 190.779 M151.078 191.420 C 149.609 194.414,149.745 194.769,151.246 191.860 C 151.910 190.573,152.386 189.453,152.304 189.371 C 152.223 189.289,151.671 190.211,151.078 191.420 M172.553 189.700 C 171.176 192.036,171.086 192.235,171.787 191.400 C 172.600 190.432,173.300 189.200,173.038 189.200 C 172.933 189.200,172.715 189.425,172.553 189.700 M136.561 192.300 C 135.957 193.565,135.393 194.735,135.308 194.900 C 135.223 195.065,135.240 195.200,135.347 195.200 C 135.454 195.200,136.035 194.165,136.639 192.900 C 137.243 191.635,137.807 190.465,137.892 190.300 C 137.977 190.135,137.960 190.000,137.853 190.000 C 137.746 190.000,137.165 191.035,136.561 192.300 M262.436 190.600 C 262.436 190.820,262.870 191.810,263.400 192.800 C 263.930 193.790,264.364 194.420,264.364 194.200 C 264.364 193.980,263.930 192.990,263.400 192.000 C 262.870 191.010,262.436 190.380,262.436 190.600 M185.578 192.700 L 184.200 194.200 185.796 192.800 C 186.673 192.030,187.468 191.355,187.562 191.300 C 187.656 191.245,187.559 191.200,187.345 191.200 C 187.132 191.200,186.337 191.875,185.578 192.700 M213.600 191.827 C 213.600 191.951,214.252 192.716,215.048 193.527 L 216.497 195.000 215.181 193.300 C 213.898 191.641,213.600 191.364,213.600 191.827 M169.871 194.900 C 169.260 196.371,168.634 198.701,168.931 198.399 C 169.223 198.102,170.766 193.600,170.575 193.600 C 170.485 193.600,170.168 194.185,169.871 194.900 M252.040 196.600 C 252.040 196.820,252.832 198.530,253.800 200.400 C 254.768 202.270,255.560 203.620,255.560 203.400 C 255.560 203.180,254.768 201.470,253.800 199.600 C 252.832 197.730,252.040 196.380,252.040 196.600 M265.309 196.700 C 265.395 196.865,265.774 197.675,266.152 198.500 C 266.529 199.325,266.930 200.000,267.042 200.000 C 267.155 200.000,267.177 199.865,267.091 199.700 C 267.005 199.535,266.626 198.725,266.248 197.900 C 265.871 197.075,265.470 196.400,265.358 196.400 C 265.245 196.400,265.223 196.535,265.309 196.700 M231.058 198.400 C 231.375 200.125,231.602 200.451,231.594 199.167 C 231.591 198.635,231.411 197.930,231.194 197.600 C 230.918 197.178,230.877 197.415,231.058 198.400 M181.471 198.700 C 181.194 199.170,180.682 201.824,180.911 201.600 C 181.174 201.344,181.983 198.400,181.791 198.400 C 181.712 198.400,181.568 198.535,181.471 198.700 M132.672 200.219 C 131.732 202.189,131.864 202.524,132.847 200.662 C 133.293 199.816,133.587 199.054,133.501 198.967 C 133.414 198.881,133.041 199.444,132.672 200.219 M168.240 200.840 C 168.093 201.757,168.052 202.585,168.147 202.680 C 168.242 202.776,168.446 202.110,168.600 201.200 C 168.754 200.290,168.796 199.462,168.693 199.360 C 168.590 199.257,168.387 199.923,168.240 200.840 M219.088 202.400 C 219.211 203.610,219.377 204.675,219.456 204.767 C 219.753 205.111,219.530 201.767,219.204 201.000 C 218.992 200.502,218.949 201.031,219.088 202.400 M180.528 204.400 C 180.528 205.830,180.601 206.415,180.689 205.700 C 180.778 204.985,180.778 203.815,180.689 203.100 C 180.601 202.385,180.528 202.970,180.528 204.400 M232.153 206.600 C 232.153 209.240,232.218 210.268,232.297 208.884 C 232.375 207.501,232.374 205.341,232.295 204.084 C 232.216 202.828,232.152 203.960,232.153 206.600 M167.734 207.200 C 167.734 208.850,167.805 209.525,167.891 208.700 C 167.978 207.875,167.978 206.525,167.891 205.700 C 167.805 204.875,167.734 205.550,167.734 207.200 M219.701 207.000 C 219.705 207.880,219.787 208.193,219.883 207.695 C 219.979 207.198,219.975 206.478,219.875 206.095 C 219.775 205.713,219.696 206.120,219.701 207.000 M180.520 210.400 C 180.520 211.610,180.595 212.105,180.687 211.500 C 180.778 210.895,180.778 209.905,180.687 209.300 C 180.595 208.695,180.520 209.190,180.520 210.400 M219.267 210.450 C 219.230 211.248,219.111 212.507,219.001 213.250 L 218.803 214.600 219.223 213.260 C 219.454 212.523,219.574 211.263,219.489 210.460 L 219.334 209.000 219.267 210.450 M168.040 212.233 C 168.062 212.875,168.233 213.850,168.420 214.400 C 168.649 215.074,168.684 214.749,168.528 213.400 C 168.269 211.150,167.979 210.459,168.040 212.233 M231.400 214.000 C 231.245 215.128,231.202 216.136,231.306 216.239 C 231.409 216.342,231.616 215.500,231.767 214.367 C 231.917 213.234,231.959 212.226,231.861 212.128 C 231.763 212.029,231.555 212.872,231.400 214.000 M218.446 215.267 C 218.421 215.634,218.296 216.264,218.170 216.667 C 217.952 217.362,217.963 217.363,218.397 216.687 C 218.648 216.296,218.773 215.666,218.673 215.287 C 218.511 214.668,218.488 214.666,218.446 215.267 M169.041 217.200 C 169.352 219.082,170.439 222.894,170.615 222.719 C 170.755 222.578,169.364 216.957,169.001 216.200 C 168.896 215.980,168.914 216.430,169.041 217.200 M230.446 218.867 C 230.421 219.234,230.296 219.864,230.170 220.267 C 229.952 220.962,229.963 220.963,230.397 220.287 C 230.648 219.896,230.773 219.266,230.673 218.887 C 230.511 218.268,230.488 218.266,230.446 218.867 M121.795 223.449 C 121.229 224.687,120.841 225.774,120.933 225.866 C 121.025 225.958,121.430 225.261,121.833 224.317 C 122.236 223.372,122.703 222.285,122.870 221.900 C 123.655 220.093,122.701 221.467,121.795 223.449 M277.218 221.900 C 277.245 222.344,279.161 225.852,279.182 225.496 C 279.205 225.105,277.562 221.600,277.356 221.600 C 277.270 221.600,277.208 221.735,277.218 221.900 M170.831 223.400 C 170.806 223.935,171.783 226.717,172.114 227.047 C 172.258 227.191,172.219 226.789,172.028 226.154 C 171.525 224.481,170.854 222.935,170.831 223.400 M134.272 226.619 C 133.332 228.589,133.464 228.924,134.447 227.062 C 134.893 226.216,135.187 225.454,135.101 225.367 C 135.014 225.281,134.641 225.844,134.272 226.619 M279.309 226.300 C 279.395 226.465,279.746 227.230,280.090 228.000 C 281.961 232.197,282.711 233.938,283.193 235.200 C 283.487 235.970,283.892 236.780,284.093 237.000 C 284.470 237.414,283.311 234.295,282.025 231.432 C 281.621 230.535,280.906 228.945,280.436 227.900 C 279.965 226.855,279.484 226.000,279.366 226.000 C 279.249 226.000,279.223 226.135,279.309 226.300 M267.007 228.279 C 267.607 229.714,268.000 230.362,268.000 229.916 C 268.000 229.484,266.785 226.800,266.589 226.800 C 266.479 226.800,266.667 227.466,267.007 228.279 M172.400 227.684 C 172.400 228.116,173.615 230.800,173.811 230.800 C 173.921 230.800,173.733 230.134,173.393 229.321 C 172.793 227.886,172.400 227.238,172.400 227.684 M188.200 232.000 C 188.541 232.660,188.911 233.200,189.021 233.200 C 189.131 233.200,188.941 232.660,188.600 232.000 C 188.259 231.340,187.889 230.800,187.779 230.800 C 187.669 230.800,187.859 231.340,188.200 232.000 M130.804 234.103 C 130.070 235.696,129.398 237.135,129.311 237.300 C 129.224 237.465,129.244 237.600,129.355 237.600 C 129.621 237.600,132.461 231.528,132.279 231.346 C 132.202 231.269,131.538 232.509,130.804 234.103 M269.232 232.860 C 269.205 233.081,271.089 237.360,272.728 240.800 L 273.204 241.800 272.953 240.800 C 272.672 239.684,269.283 232.451,269.232 232.860 M209.453 235.191 C 208.874 236.067,208.400 236.917,208.400 237.080 C 208.400 237.244,208.642 237.023,208.939 236.589 C 210.241 234.681,210.878 233.600,210.699 233.600 C 210.593 233.600,210.032 234.316,209.453 235.191 M221.800 239.200 C 221.459 239.860,221.269 240.400,221.379 240.400 C 221.489 240.400,221.859 239.860,222.200 239.200 C 222.541 238.540,222.731 238.000,222.621 238.000 C 222.511 238.000,222.141 238.540,221.800 239.200 M179.400 241.600 C 179.741 242.260,180.111 242.800,180.221 242.800 C 180.331 242.800,180.141 242.260,179.800 241.600 C 179.459 240.940,179.089 240.400,178.979 240.400 C 178.869 240.400,179.059 240.940,179.400 241.600 M196.232 244.300 C 199.994 249.451,200.034 249.472,201.619 247.088 L 202.476 245.800 201.338 247.104 C 199.843 248.816,200.051 248.927,197.022 244.800 C 195.568 242.820,194.287 241.200,194.174 241.200 C 194.061 241.200,194.987 242.595,196.232 244.300 M203.902 243.467 C 203.078 244.665,202.580 245.536,202.796 245.402 C 203.309 245.085,205.719 241.582,205.539 241.417 C 205.462 241.347,204.726 242.269,203.902 243.467 M219.516 242.888 C 218.651 244.222,217.948 245.600,218.133 245.600 C 218.425 245.600,220.464 242.330,220.284 242.151 C 220.187 242.054,219.842 242.386,219.516 242.888 M113.467 243.867 C 113.320 244.013,113.211 244.508,113.225 244.967 C 113.249 245.733,113.282 245.723,113.634 244.842 C 114.026 243.863,113.944 243.389,113.467 243.867 M126.446 244.267 C 126.421 244.524,126.284 245.064,126.141 245.467 C 125.940 246.036,125.994 246.097,126.379 245.742 C 126.652 245.491,126.789 244.951,126.684 244.542 C 126.579 244.134,126.472 244.010,126.446 244.267 M274.006 244.833 C 274.009 245.365,274.189 246.070,274.406 246.400 C 274.682 246.822,274.723 246.585,274.542 245.600 C 274.225 243.875,273.998 243.549,274.006 244.833 M287.062 247.000 C 287.196 247.880,287.372 248.675,287.453 248.767 C 287.756 249.110,287.529 246.968,287.181 246.200 C 286.929 245.642,286.893 245.885,287.062 247.000 M125.450 248.050 C 125.117 249.717,125.440 250.040,125.800 248.400 C 125.952 247.709,125.993 247.059,125.891 246.958 C 125.789 246.856,125.591 247.347,125.450 248.050 M112.676 248.010 C 112.530 248.555,112.428 249.540,112.449 250.200 C 112.480 251.157,112.559 251.036,112.842 249.600 C 113.229 247.633,113.102 246.417,112.676 248.010 M274.993 253.400 C 274.990 258.449,275.024 258.731,275.346 256.264 C 275.553 254.674,275.555 252.329,275.350 250.664 C 275.025 248.034,274.996 248.257,274.993 253.400 M213.786 251.437 C 212.551 253.107,211.599 254.531,211.670 254.600 C 211.742 254.670,212.838 253.304,214.106 251.564 C 215.374 249.824,216.326 248.400,216.222 248.400 C 216.117 248.400,215.021 249.767,213.786 251.437 M185.825 251.200 C 186.682 252.410,188.326 254.638,189.478 256.152 C 192.036 259.511,192.331 258.840,185.314 265.637 C 182.281 268.574,180.880 270.055,182.200 268.926 C 186.513 265.240,192.095 259.279,191.759 258.718 C 191.191 257.769,185.476 250.209,184.867 249.600 C 184.536 249.270,184.967 249.990,185.825 251.200 M124.944 254.400 C 124.944 256.490,125.012 257.345,125.094 256.300 C 125.176 255.255,125.176 253.545,125.094 252.500 C 125.012 251.455,124.944 252.310,124.944 254.400 M287.022 257.822 C 286.872 258.625,286.838 259.372,286.948 259.482 C 287.058 259.592,287.272 259.025,287.422 258.222 C 287.573 257.419,287.606 256.673,287.496 256.563 C 287.386 256.453,287.173 257.019,287.022 257.822 M112.406 258.433 C 112.409 259.185,112.592 260.070,112.812 260.400 C 113.091 260.819,113.133 260.458,112.950 259.200 C 112.625 256.959,112.398 256.640,112.406 258.433 M208.425 258.807 C 208.402 259.356,215.683 266.802,218.600 269.211 C 219.260 269.756,217.397 267.874,214.460 265.028 C 211.523 262.183,208.970 259.482,208.786 259.027 C 208.571 258.496,208.442 258.417,208.425 258.807 M125.444 260.600 C 125.773 262.071,126.002 262.390,125.994 261.367 C 125.991 260.945,125.805 260.330,125.582 260.000 C 125.285 259.562,125.248 259.724,125.444 260.600 M274.229 261.029 C 274.081 261.615,274.038 262.172,274.132 262.266 C 274.227 262.360,274.424 261.958,274.571 261.371 C 274.719 260.785,274.762 260.228,274.668 260.134 C 274.573 260.040,274.376 260.442,274.229 261.029 M286.229 261.829 C 286.081 262.415,286.038 262.972,286.132 263.066 C 286.227 263.160,286.424 262.758,286.571 262.171 C 286.719 261.585,286.762 261.028,286.668 260.934 C 286.573 260.840,286.376 261.242,286.229 261.829 M113.234 262.600 C 113.222 263.040,113.387 263.670,113.600 264.000 C 114.114 264.795,114.114 263.796,113.600 262.600 L 113.256 261.800 113.234 262.600 M272.229 266.461 C 271.883 267.155,271.600 267.825,271.600 267.950 C 271.600 268.297,272.633 266.694,272.921 265.900 C 273.336 264.755,272.906 265.104,272.229 266.461 M127.200 265.711 C 127.200 266.914,130.761 271.851,133.465 274.399 L 135.800 276.599 133.355 273.999 C 131.013 271.510,128.414 268.019,128.387 267.328 C 128.372 266.931,127.200 265.336,127.200 265.711 M195.098 272.269 C 192.732 274.612,190.851 276.584,190.918 276.651 C 190.985 276.718,193.008 274.799,195.413 272.387 C 197.818 269.974,199.699 268.002,199.593 268.005 C 199.487 268.007,197.464 269.927,195.098 272.269 M222.200 272.109 C 223.080 272.892,224.340 273.847,225.000 274.229 C 226.544 275.124,226.271 274.841,223.800 272.990 C 220.787 270.732,220.440 270.541,222.200 272.109 M116.404 271.400 C 116.405 271.620,116.763 272.340,117.200 273.000 C 118.236 274.564,118.237 274.008,117.201 272.310 C 116.762 271.589,116.404 271.180,116.404 271.400 M176.011 273.420 C 175.247 273.959,174.797 274.399,175.011 274.398 C 175.225 274.397,175.940 273.953,176.600 273.412 C 178.141 272.149,177.805 272.153,176.011 273.420 M281.800 273.600 C 281.459 274.260,281.269 274.800,281.379 274.800 C 281.489 274.800,281.859 274.260,282.200 273.600 C 282.541 272.940,282.731 272.400,282.621 272.400 C 282.511 272.400,282.141 272.940,281.800 273.600 M208.924 276.704 C 212.314 279.814,213.226 280.386,210.200 277.504 C 208.660 276.038,207.276 274.829,207.124 274.819 C 206.972 274.809,207.782 275.657,208.924 276.704 M120.045 277.434 C 120.950 278.793,122.822 280.912,122.974 280.750 C 123.052 280.668,122.300 279.700,121.303 278.600 C 120.306 277.500,119.740 276.975,120.045 277.434 M188.975 278.100 L 187.800 279.400 189.100 278.225 C 190.312 277.130,190.584 276.800,190.275 276.800 C 190.206 276.800,189.621 277.385,188.975 278.100 M214.400 281.210 C 216.306 282.924,221.200 286.267,221.200 285.856 C 221.200 285.751,220.527 285.249,219.704 284.740 C 218.881 284.232,217.036 282.946,215.604 281.884 C 214.172 280.821,213.630 280.518,214.400 281.210 M275.186 282.300 L 273.000 284.600 275.300 282.414 C 277.437 280.382,277.783 280.000,277.486 280.000 C 277.424 280.000,276.389 281.035,275.186 282.300 M183.600 282.249 C 181.034 284.256,180.664 284.763,182.918 283.183 C 184.600 282.004,185.985 280.760,185.549 280.821 C 185.467 280.832,184.590 281.475,183.600 282.249 M147.000 281.600 C 147.440 281.789,148.160 281.944,148.600 281.944 L 149.400 281.944 148.600 281.600 C 148.160 281.411,147.440 281.256,147.000 281.256 L 146.200 281.256 147.000 281.600 M157.600 281.600 C 156.808 281.854,156.767 281.920,157.400 281.920 C 157.840 281.920,158.650 281.776,159.200 281.600 C 159.992 281.346,160.033 281.280,159.400 281.280 C 158.960 281.280,158.150 281.424,157.600 281.600 M242.000 281.600 C 242.550 281.776,243.450 281.917,244.000 281.913 C 244.898 281.906,244.878 281.874,243.800 281.600 C 242.108 281.169,240.656 281.169,242.000 281.600 M250.600 281.600 L 249.400 281.905 250.600 281.925 C 251.260 281.935,252.160 281.789,252.600 281.600 L 253.400 281.256 252.600 281.275 C 252.160 281.286,251.260 281.432,250.600 281.600 M126.400 284.150 C 126.950 284.771,127.940 285.650,128.600 286.104 C 130.026 287.085,129.643 286.664,127.200 284.568 C 126.004 283.541,125.736 283.401,126.400 284.150 M178.881 285.372 C 176.921 286.758,176.785 287.065,178.600 286.005 C 180.478 284.910,181.125 284.391,180.580 284.420 C 180.371 284.430,179.607 284.859,178.881 285.372 M222.400 286.767 C 223.363 287.552,224.000 287.808,224.000 287.410 C 224.000 287.306,223.415 286.935,222.700 286.586 L 221.400 285.952 222.400 286.767 M130.600 287.411 C 131.040 287.769,131.940 288.326,132.600 288.650 C 133.722 289.201,133.748 289.197,133.000 288.589 C 132.560 288.231,131.660 287.674,131.000 287.350 C 129.878 286.799,129.852 286.803,130.600 287.411 M164.200 292.000 C 163.429 292.331,163.431 292.345,164.276 292.372 C 164.758 292.387,165.264 292.220,165.400 292.000 C 165.692 291.527,165.301 291.527,164.200 292.000 M142.800 292.782 C 143.130 293.005,143.745 293.191,144.167 293.194 C 145.190 293.202,144.871 292.973,143.400 292.644 C 142.524 292.448,142.362 292.485,142.800 292.782 M161.000 292.800 C 159.893 293.082,159.877 293.109,160.800 293.147 C 161.350 293.169,162.070 293.013,162.400 292.800 C 163.081 292.360,162.729 292.360,161.000 292.800 M237.200 292.779 C 237.530 293.004,238.325 293.191,238.967 293.194 C 240.504 293.202,240.184 292.970,238.200 292.638 C 237.054 292.446,236.770 292.486,237.200 292.779 M255.600 292.800 L 254.600 293.120 255.676 293.160 C 256.268 293.182,256.864 293.020,257.000 292.800 C 257.281 292.345,257.020 292.345,255.600 292.800 M147.115 293.672 C 147.492 293.821,149.870 293.944,152.400 293.944 C 154.930 293.944,157.308 293.821,157.685 293.672 C 158.062 293.522,155.684 293.400,152.400 293.400 C 149.116 293.400,146.738 293.522,147.115 293.672 M247.400 293.600 L 242.600 293.839 247.200 293.880 C 249.730 293.902,252.250 293.776,252.800 293.600 C 253.540 293.363,253.592 293.290,253.000 293.320 C 252.560 293.343,250.040 293.469,247.400 293.600 " stroke="none" fill="#fc9ca1" fill-rule="evenodd"></path><path id="path3" d="M180.114 207.000 C 180.117 208.100,180.195 208.503,180.287 207.895 C 180.379 207.286,180.377 206.386,180.282 205.895 C 180.187 205.403,180.111 205.900,180.114 207.000 " stroke="none" fill="#fcacb4" fill-rule="evenodd"></path><path id="path4" d="M195.000 106.800 C 193.922 107.074,193.902 107.106,194.800 107.113 C 195.350 107.117,196.250 106.976,196.800 106.800 C 198.144 106.369,196.692 106.369,195.000 106.800 M203.800 106.781 C 204.568 107.129,206.710 107.356,206.367 107.053 C 206.275 106.972,205.480 106.796,204.600 106.662 C 203.485 106.493,203.242 106.529,203.800 106.781 M179.478 114.213 C 178.860 114.756,178.514 115.200,178.708 115.200 C 178.902 115.200,179.483 114.750,180.000 114.200 C 181.195 112.928,180.931 112.934,179.478 114.213 M221.618 115.385 C 222.870 117.034,225.200 119.593,225.184 119.301 C 225.176 119.136,224.231 118.003,223.084 116.785 C 221.938 115.566,221.278 114.936,221.618 115.385 M199.500 118.682 C 199.995 118.778,200.805 118.778,201.300 118.682 C 201.795 118.587,201.390 118.509,200.400 118.509 C 199.410 118.509,199.005 118.587,199.500 118.682 M205.000 119.200 C 205.440 119.389,206.070 119.544,206.400 119.544 C 206.778 119.544,206.704 119.417,206.200 119.200 C 205.760 119.011,205.130 118.856,204.800 118.856 C 204.422 118.856,204.496 118.983,205.000 119.200 M171.800 123.600 C 171.459 124.260,171.269 124.800,171.379 124.800 C 171.489 124.800,171.859 124.260,172.200 123.600 C 172.541 122.940,172.731 122.400,172.621 122.400 C 172.511 122.400,172.141 122.940,171.800 123.600 M212.400 122.546 C 212.400 122.656,212.940 123.130,213.600 123.600 C 214.260 124.070,214.800 124.364,214.800 124.254 C 214.800 124.144,214.260 123.670,213.600 123.200 C 212.940 122.730,212.400 122.436,212.400 122.546 M167.800 130.800 C 167.459 131.460,167.269 132.000,167.379 132.000 C 167.489 132.000,167.859 131.460,168.200 130.800 C 168.541 130.140,168.731 129.600,168.621 129.600 C 168.511 129.600,168.141 130.140,167.800 130.800 M219.400 131.200 C 219.741 131.860,220.111 132.400,220.221 132.400 C 220.331 132.400,220.141 131.860,219.800 131.200 C 219.459 130.540,219.089 130.000,218.979 130.000 C 218.869 130.000,219.059 130.540,219.400 131.200 M235.078 136.995 C 235.444 137.762,235.814 138.319,235.901 138.232 C 236.084 138.049,234.870 135.600,234.596 135.600 C 234.495 135.600,234.712 136.228,235.078 136.995 M236.800 140.400 C 237.249 141.280,237.706 142.000,237.816 142.000 C 237.926 142.000,237.649 141.280,237.200 140.400 C 236.751 139.520,236.294 138.800,236.184 138.800 C 236.074 138.800,236.351 139.520,236.800 140.400 M171.381 150.037 C 171.029 150.718,170.812 151.345,170.899 151.432 C 170.986 151.519,171.356 150.962,171.722 150.195 C 172.544 148.470,172.259 148.338,171.381 150.037 M169.600 153.600 C 169.151 154.480,168.874 155.200,168.984 155.200 C 169.094 155.200,169.551 154.480,170.000 153.600 C 170.449 152.720,170.726 152.000,170.616 152.000 C 170.506 152.000,170.049 152.720,169.600 153.600 M197.500 175.896 C 198.875 175.974,201.125 175.974,202.500 175.896 C 203.875 175.818,202.750 175.754,200.000 175.754 C 197.250 175.754,196.125 175.818,197.500 175.896 M206.800 176.382 C 207.130 176.605,207.745 176.791,208.167 176.794 C 209.190 176.802,208.871 176.573,207.400 176.244 C 206.524 176.048,206.362 176.085,206.800 176.382 M189.200 177.200 C 188.376 177.464,188.341 177.526,189.000 177.554 C 189.440 177.573,190.070 177.413,190.400 177.200 C 191.101 176.747,190.614 176.747,189.200 177.200 M181.260 181.203 C 180.347 181.864,179.600 182.503,179.600 182.623 C 179.600 182.811,181.854 181.277,182.980 180.322 C 183.927 179.519,182.756 180.118,181.260 181.203 M176.810 184.990 C 175.620 186.195,174.726 187.236,174.823 187.305 C 174.921 187.373,175.974 186.388,177.163 185.115 C 179.906 182.181,179.667 182.097,176.810 184.990 M223.000 184.800 C 223.859 185.680,224.652 186.400,224.762 186.400 C 224.872 186.400,224.259 185.680,223.400 184.800 C 222.541 183.920,221.748 183.200,221.638 183.200 C 221.528 183.200,222.141 183.920,223.000 184.800 M198.691 186.689 C 199.401 186.777,200.661 186.779,201.491 186.692 C 202.321 186.605,201.740 186.533,200.200 186.531 C 198.660 186.529,197.981 186.600,198.691 186.689 M187.760 190.350 C 186.902 190.983,185.570 192.194,184.800 193.041 C 183.718 194.231,183.900 194.127,185.600 192.587 C 186.810 191.490,188.250 190.289,188.800 189.917 C 189.350 189.546,189.692 189.233,189.560 189.221 C 189.428 189.209,188.618 189.718,187.760 190.350 M210.800 189.311 C 210.800 189.387,211.385 189.878,212.100 190.401 C 212.904 190.990,213.184 191.087,212.833 190.655 C 212.300 189.999,210.800 189.007,210.800 189.311 M171.800 191.600 C 171.459 192.260,171.269 192.800,171.379 192.800 C 171.489 192.800,171.859 192.260,172.200 191.600 C 172.541 190.940,172.731 190.400,172.621 190.400 C 172.511 190.400,172.141 190.940,171.800 191.600 M133.878 198.620 C 132.409 201.614,132.545 201.969,134.046 199.060 C 134.710 197.773,135.186 196.653,135.104 196.571 C 135.023 196.489,134.471 197.411,133.878 198.620 M231.481 202.400 C 231.606 203.610,231.774 204.675,231.854 204.767 C 232.135 205.087,231.917 202.191,231.587 201.200 C 231.371 200.554,231.334 200.980,231.481 202.400 M168.259 203.088 C 168.121 203.919,168.034 205.950,168.065 207.600 C 168.116 210.361,168.144 210.249,168.415 206.200 C 168.725 201.570,168.675 200.569,168.259 203.088 M219.798 207.200 C 219.796 211.499,219.820 211.636,220.154 209.299 C 220.364 207.833,220.365 205.928,220.156 204.699 C 219.847 202.875,219.800 203.203,219.798 207.200 M179.791 205.330 C 179.645 206.502,179.681 208.249,179.872 209.212 C 180.164 210.688,180.218 210.352,180.218 207.082 C 180.218 202.623,180.160 202.383,179.791 205.330 M130.065 206.617 C 129.395 208.088,129.523 208.402,130.247 207.065 C 130.586 206.440,130.788 205.854,130.696 205.763 C 130.605 205.671,130.321 206.056,130.065 206.617 M231.458 210.359 C 231.307 211.986,231.261 213.395,231.357 213.490 C 231.606 213.739,232.121 208.563,231.910 207.930 C 231.813 207.639,231.610 208.732,231.458 210.359 M270.828 209.000 C 270.828 209.220,271.086 209.850,271.400 210.400 C 271.714 210.950,271.972 211.220,271.972 211.000 C 271.972 210.780,271.714 210.150,271.400 209.600 C 271.086 209.050,270.828 208.780,270.828 209.000 M140.865 211.817 C 140.195 213.288,140.323 213.602,141.047 212.265 C 141.386 211.640,141.588 211.054,141.496 210.963 C 141.405 210.871,141.121 211.256,140.865 211.817 M180.406 213.433 C 180.409 213.855,180.595 214.470,180.818 214.800 C 181.115 215.238,181.152 215.076,180.956 214.200 C 180.627 212.729,180.398 212.410,180.406 213.433 M168.856 215.200 C 168.856 215.530,169.011 216.160,169.200 216.600 C 169.417 217.104,169.544 217.178,169.544 216.800 C 169.544 216.470,169.389 215.840,169.200 215.400 C 168.983 214.896,168.856 214.822,168.856 215.200 M230.629 216.629 C 230.481 217.215,230.438 217.772,230.532 217.866 C 230.627 217.960,230.824 217.558,230.971 216.971 C 231.119 216.385,231.162 215.828,231.068 215.734 C 230.973 215.640,230.776 216.042,230.629 216.629 M136.475 221.019 C 135.270 223.500,135.405 223.847,136.646 221.461 C 137.201 220.394,137.587 219.453,137.503 219.370 C 137.419 219.286,136.957 220.028,136.475 221.019 M187.949 232.200 C 188.165 232.640,188.634 233.360,188.993 233.800 L 189.644 234.600 189.251 233.800 C 189.035 233.360,188.566 232.640,188.207 232.200 L 187.556 231.400 187.949 232.200 M211.053 233.300 L 210.333 234.600 211.158 233.600 C 211.889 232.713,212.214 232.000,211.886 232.000 C 211.824 232.000,211.449 232.585,211.053 233.300 M189.600 234.920 C 189.600 235.304,191.645 238.400,191.899 238.400 C 192.078 238.400,191.441 237.319,190.139 235.411 C 189.842 234.977,189.600 234.756,189.600 234.920 M177.160 237.000 C 177.834 238.305,178.388 239.028,178.385 238.600 C 178.383 238.380,178.014 237.750,177.564 237.200 C 177.021 236.536,176.885 236.469,177.160 237.000 M222.553 237.300 C 221.176 239.636,221.086 239.835,221.787 239.000 C 222.600 238.032,223.300 236.800,223.038 236.800 C 222.933 236.800,222.715 237.025,222.553 237.300 M274.658 246.000 C 274.975 247.725,275.202 248.051,275.194 246.767 C 275.191 246.235,275.011 245.530,274.794 245.200 C 274.518 244.778,274.477 245.015,274.658 246.000 M201.497 247.300 L 200.091 249.000 199.189 248.200 L 198.287 247.400 198.840 248.300 C 199.651 249.621,200.440 249.386,201.913 247.384 C 203.576 245.123,203.338 245.074,201.497 247.300 M125.049 247.815 C 124.912 248.173,124.821 248.946,124.846 249.533 C 124.880 250.332,124.970 250.198,125.204 249.000 C 125.535 247.300,125.462 246.740,125.049 247.815 M275.395 253.920 C 275.393 256.494,275.507 258.060,275.648 257.400 C 275.994 255.785,276.010 250.767,275.672 249.920 C 275.522 249.546,275.398 251.346,275.395 253.920 M287.340 252.400 C 287.340 254.270,287.409 255.035,287.493 254.100 C 287.577 253.165,287.577 251.635,287.493 250.700 C 287.409 249.765,287.340 250.530,287.340 252.400 M213.375 251.468 C 212.759 252.276,212.459 252.811,212.709 252.656 C 213.221 252.340,214.953 250.000,214.675 250.000 C 214.576 250.000,213.991 250.661,213.375 251.468 M112.509 254.000 C 112.509 254.990,112.587 255.395,112.682 254.900 C 112.778 254.405,112.778 253.595,112.682 253.100 C 112.587 252.605,112.509 253.010,112.509 254.000 M124.514 254.600 C 124.517 255.700,124.595 256.103,124.687 255.495 C 124.779 254.886,124.777 253.986,124.682 253.495 C 124.587 253.003,124.511 253.500,124.514 254.600 M210.000 261.400 C 211.195 262.610,212.263 263.600,212.373 263.600 C 212.483 263.600,211.595 262.610,210.400 261.400 C 209.205 260.190,208.137 259.200,208.027 259.200 C 207.917 259.200,208.805 260.190,210.000 261.400 M274.846 260.067 C 274.821 260.434,274.696 261.064,274.570 261.467 C 274.352 262.162,274.363 262.163,274.797 261.487 C 275.048 261.096,275.173 260.466,275.073 260.087 C 274.911 259.468,274.888 259.466,274.846 260.067 M189.385 262.100 L 187.400 264.200 189.500 262.215 C 190.655 261.123,191.600 260.178,191.600 260.115 C 191.600 259.817,191.229 260.149,189.385 262.100 M215.000 266.400 C 216.306 267.720,217.465 268.800,217.575 268.800 C 217.685 268.800,216.706 267.720,215.400 266.400 C 214.094 265.080,212.935 264.000,212.825 264.000 C 212.715 264.000,213.694 265.080,215.000 266.400 M184.383 267.100 L 182.600 269.000 184.593 267.200 C 185.688 266.210,186.663 265.355,186.759 265.300 C 186.855 265.245,186.761 265.200,186.550 265.200 C 186.339 265.200,185.364 266.055,184.383 267.100 M195.746 271.231 C 193.533 273.414,191.827 275.200,191.955 275.200 C 192.082 275.200,193.915 273.477,196.028 271.372 L 199.871 267.543 201.236 268.658 C 202.313 269.537,202.433 269.578,201.804 268.849 C 200.173 266.956,200.013 267.019,195.746 271.231 M218.022 269.100 C 218.034 269.265,218.619 269.838,219.322 270.374 L 220.600 271.349 219.425 270.074 C 218.203 268.749,217.985 268.597,218.022 269.100 M220.944 271.509 C 221.260 272.021,223.600 273.753,223.600 273.475 C 223.600 273.376,222.939 272.791,222.132 272.175 C 221.324 271.559,220.789 271.259,220.944 271.509 M133.200 274.525 C 133.200 274.594,133.785 275.179,134.500 275.825 L 135.800 277.000 134.625 275.700 C 133.530 274.488,133.200 274.216,133.200 274.525 M207.600 274.925 C 207.600 274.994,208.185 275.579,208.900 276.225 L 210.200 277.400 209.025 276.100 C 207.930 274.888,207.600 274.616,207.600 274.925 M189.381 277.300 L 187.800 279.000 189.500 277.419 C 191.081 275.948,191.384 275.600,191.081 275.600 C 191.016 275.600,190.251 276.365,189.381 277.300 M169.900 277.627 C 169.075 278.063,168.400 278.508,168.400 278.618 C 168.400 278.727,169.120 278.449,170.000 278.000 C 170.880 277.551,171.600 277.097,171.600 276.992 C 171.600 276.730,171.597 276.731,169.900 277.627 M210.400 277.325 C 210.400 277.394,210.985 277.979,211.700 278.625 L 213.000 279.800 211.825 278.500 C 210.730 277.288,210.400 277.016,210.400 277.325 M165.200 279.816 C 163.990 280.337,163.270 280.760,163.600 280.757 C 163.930 280.754,165.100 280.327,166.200 279.809 C 168.799 278.585,168.050 278.590,165.200 279.816 M274.000 282.871 C 271.463 285.269,271.370 285.397,273.400 283.698 C 275.650 281.815,277.528 279.978,277.162 280.017 C 277.073 280.027,275.650 281.311,274.000 282.871 M149.305 282.287 C 149.914 282.379,150.814 282.377,151.305 282.282 C 151.797 282.187,151.300 282.111,150.200 282.114 C 149.100 282.117,148.697 282.195,149.305 282.287 M154.900 282.287 C 155.505 282.378,156.495 282.378,157.100 282.287 C 157.705 282.195,157.210 282.120,156.000 282.120 C 154.790 282.120,154.295 282.195,154.900 282.287 M216.873 282.626 C 217.243 283.052,218.143 283.741,218.873 284.157 C 220.439 285.050,220.026 284.607,217.800 283.004 C 216.869 282.334,216.482 282.176,216.873 282.626 M245.100 282.295 C 246.255 282.376,248.145 282.376,249.300 282.295 C 250.455 282.214,249.510 282.148,247.200 282.148 C 244.890 282.148,243.945 282.214,245.100 282.295 M125.600 282.925 C 125.600 282.994,126.185 283.579,126.900 284.225 L 128.200 285.400 127.025 284.100 C 125.930 282.888,125.600 282.616,125.600 282.925 M175.904 286.760 C 172.447 288.682,171.879 289.260,175.000 287.680 C 177.148 286.592,179.325 285.196,178.800 285.243 C 178.690 285.253,177.387 285.936,175.904 286.760 M269.281 286.572 C 267.423 287.885,267.162 288.261,268.731 287.362 C 269.463 286.943,270.250 286.375,270.480 286.100 C 271.071 285.393,270.793 285.502,269.281 286.572 M164.400 291.618 C 163.962 291.915,164.124 291.952,165.000 291.756 C 166.471 291.427,166.790 291.198,165.767 291.206 C 165.345 291.209,164.730 291.395,164.400 291.618 M142.033 292.144 C 142.125 292.223,142.740 292.408,143.400 292.556 C 144.276 292.752,144.438 292.715,144.000 292.418 C 143.460 292.053,141.632 291.798,142.033 292.144 M161.000 292.400 C 159.981 292.838,161.032 292.838,162.400 292.400 C 163.204 292.143,163.243 292.077,162.600 292.068 C 162.160 292.062,161.440 292.211,161.000 292.400 M237.200 292.400 C 238.568 292.838,239.619 292.838,238.600 292.400 C 238.160 292.211,237.440 292.062,237.000 292.068 C 236.357 292.077,236.396 292.143,237.200 292.400 M256.000 292.418 C 255.562 292.715,255.724 292.752,256.600 292.556 C 258.071 292.227,258.390 291.998,257.367 292.006 C 256.945 292.009,256.330 292.195,256.000 292.418 M147.000 293.223 C 149.026 293.642,150.663 293.623,149.000 293.200 C 148.340 293.032,147.260 292.894,146.600 292.893 C 145.591 292.892,145.655 292.945,147.000 293.223 M240.900 293.076 C 241.285 293.176,241.915 293.176,242.300 293.076 C 242.685 292.975,242.370 292.893,241.600 292.893 C 240.830 292.893,240.515 292.975,240.900 293.076 M252.500 293.076 C 252.885 293.176,253.515 293.176,253.900 293.076 C 254.285 292.975,253.970 292.893,253.200 292.893 C 252.430 292.893,252.115 292.975,252.500 293.076 M243.700 293.476 C 244.085 293.576,244.715 293.576,245.100 293.476 C 245.485 293.375,245.170 293.293,244.400 293.293 C 243.630 293.293,243.315 293.375,243.700 293.476 " stroke="none" fill="#fcb4b4" fill-rule="evenodd"></path></g></svg>